<svg width="124" height="42" viewBox="0 0 124 42" fill="none" xmlns="http://www.w3.org/2000/svg">
<path d="M44.0001 33.7515C43.0449 34.7316 42.0681 35.4347 41.0695 35.8608C40.071 36.2869 38.9639 36.5 37.7483 36.5C36.0551 36.5 34.7526 36.0952 33.8409 35.2856C32.9292 34.4333 32.0609 32.9419 31.236 30.8113L28.7613 24.5474C28.2403 23.3969 27.741 22.5659 27.2635 22.0546C26.7859 21.5006 26.0044 21.2237 24.919 21.2237V28.1268C24.919 30.0869 25.071 31.4931 25.3749 32.3453C25.7222 33.155 26.5037 34.0924 27.7193 35.1577L27.2635 35.9247H20.6932H15.5413L15.0854 34.7742C16.1708 34.4759 20.2157 34.4049 20.6932 34.1493C21.1708 33.851 20.5196 32.8425 20.6932 32.3738C20.8669 31.905 20.6932 31.5784 20.6932 30.5983V14.6189C20.6932 12.5735 21.0405 10.102 20.6932 9.2924C20.3893 8.44017 21.9089 8.5396 20.6932 7.51691L28.1752 7.09788C26.7859 7.82228 25.8959 8.50406 25.5051 9.14324C25.1144 9.78242 24.919 10.869 24.919 12.403V20.3288H25.1144L32.864 11.6999C33.2548 11.2312 33.5153 10.8264 33.6455 10.4855C33.8192 10.102 33.9277 9.67589 33.9711 9.20716C33.9711 8.90888 33.7975 8.33362 33.4501 7.48138L33.0594 6.77829L33.906 6.0752H41.5905L41.9813 7.22571L40.4834 7.67313C39.2678 8.18448 38.1173 9.03671 37.0319 10.2298L27.9147 20.4567C30.1723 20.6271 31.9523 21.0958 33.2548 21.8628C34.5572 22.5872 35.5124 23.6738 36.1202 25.1226L39.1158 32.5371C39.3329 33.091 39.5934 33.4959 39.8973 33.7515C40.2012 33.9646 40.592 34.0711 41.0695 34.0711C41.7642 34.0711 42.5674 33.7302 43.4791 33.0484L44.0001 33.7515Z" fill="#FAFAFA"/>
<path d="M11.0334 20.265C8.9061 20.7337 7.2129 21.6499 5.95385 23.0134C4.65139 24.377 4.00016 25.9749 4.00016 27.8073C4.00016 30.2787 5.06384 32.2602 7.19119 33.7516C9.31854 35.2004 12.184 35.9248 15.7874 35.9248H29.3981L29.854 34.7743C28.7686 34.476 27.9871 34.199 27.5096 33.9433C27.032 33.6451 26.7064 33.2616 26.5327 32.7928C26.3591 32.3241 26.2722 31.5997 26.2722 30.6196V13.298C26.2722 11.8065 26.4025 10.7199 26.663 10.0382C26.8801 9.35636 27.4227 8.7598 28.2911 8.24846L29.0725 7.80103L28.812 6.97011C27.4227 6.54399 25.6427 6.20309 23.4719 5.94742C21.2578 5.64914 19.2607 5.5 17.4806 5.5C13.6601 5.5 10.6861 6.20309 8.55877 7.60928C6.38801 9.01547 5.30262 10.9756 5.30262 13.4897C5.30262 15.0663 5.82361 16.4512 6.86558 17.6444C7.86413 18.7949 9.25342 19.6684 11.0334 20.265ZM15.8526 34.5186C14.2896 34.5186 13.0088 33.9007 12.0103 32.665C10.9683 31.4293 10.4473 29.8526 10.4473 27.9351C10.4473 25.9749 11.1203 24.377 12.4662 23.1413C13.812 21.9055 15.7223 21.0746 18.197 20.6485V19.8815C16.1999 19.8815 14.6369 19.3062 13.5081 18.1557C12.3359 17.0052 11.7498 15.4498 11.7498 13.4897C11.7498 11.5296 12.2274 9.97423 13.1825 8.82372C14.1376 7.63059 15.4184 7.03402 17.0248 7.03402C17.9799 7.03402 18.718 7.35361 19.239 7.99279C19.7599 8.58935 20.0204 9.44159 20.0204 10.5495V28.8299C20.0204 30.577 19.6514 31.9619 18.9133 32.9846C18.1319 34.0073 17.1116 34.5186 15.8526 34.5186Z" fill="#6F7351"/>
<path d="M64.1984 27.048C63.7877 27.4773 63.3677 27.7853 62.9384 27.972C62.5091 28.1587 62.0331 28.252 61.5104 28.252C60.7824 28.252 60.2224 28.0747 59.8304 27.72C59.4384 27.3467 59.0651 26.6933 58.7104 25.76L57.6464 23.016C57.4224 22.512 57.2077 22.148 57.0024 21.924C56.7971 21.6813 56.4611 21.56 55.9944 21.56V24.584C55.9944 25.4427 56.0597 26.0587 56.1904 26.432C56.3397 26.7867 56.6757 27.1973 57.1984 27.664L57.0024 28H51.9624L51.7664 27.496C52.2331 27.3653 52.5691 27.244 52.7744 27.132C52.9797 27.0013 53.1197 26.8333 53.1944 26.628C53.2691 26.4227 53.3064 26.1053 53.3064 25.676V18.396C53.3064 17.5 53.2317 16.8747 53.0824 16.52C52.9517 16.1467 52.6251 15.736 52.1024 15.288L52.3264 14.924H57.1984L57.3944 15.372C56.7971 15.6893 56.4144 15.988 56.2464 16.268C56.0784 16.548 55.9944 17.024 55.9944 17.696V21.168H56.0784L59.4104 17.388C59.5784 17.1827 59.6904 17.0053 59.7464 16.856C59.8211 16.688 59.8677 16.5013 59.8864 16.296C59.8864 16.1653 59.8117 15.9133 59.6624 15.54L59.4944 15.232L59.8584 14.924H63.1624L63.3304 15.428L62.6864 15.624C62.1637 15.848 61.6691 16.2213 61.2024 16.744L57.2824 21.224C58.2531 21.2987 59.0184 21.504 59.5784 21.84C60.1384 22.1573 60.5491 22.6333 60.8104 23.268L62.0984 26.516C62.1917 26.7587 62.3037 26.936 62.4344 27.048C62.5651 27.1413 62.7331 27.188 62.9384 27.188C63.2371 27.188 63.5824 27.0387 63.9744 26.74L64.1984 27.048ZM67.6453 21.812C67.2533 22.036 66.7866 22.148 66.2453 22.148C65.8533 22.148 65.5453 22.036 65.3213 21.812C65.0973 21.5693 64.9853 21.2333 64.9853 20.804C64.9853 20.1693 65.2933 19.6653 65.9093 19.292C66.5439 18.9 67.3653 18.704 68.3733 18.704C69.5679 18.704 70.5013 18.9653 71.1732 19.488C71.8639 20.0107 72.2093 20.72 72.2093 21.616V26.46C72.2093 26.9827 72.3959 27.244 72.7693 27.244C73.1239 27.244 73.4693 27.104 73.8053 26.824L74.0293 27.104C73.3386 27.8693 72.5173 28.252 71.5653 28.252C71.0053 28.252 70.5759 28.112 70.2773 27.832C69.9973 27.552 69.8293 27.1133 69.7733 26.516H69.6613C69.3626 27.0573 68.9613 27.4867 68.4573 27.804C67.9719 28.1027 67.4119 28.252 66.7773 28.252C66.0679 28.252 65.4986 28.0373 65.0693 27.608C64.6399 27.16 64.4253 26.5813 64.4253 25.872C64.4253 25.0693 64.8079 24.4347 65.5733 23.968C66.3386 23.5013 67.3746 23.268 68.6813 23.268C68.9239 23.268 69.2693 23.2867 69.7173 23.324V21.924C69.7173 21.0093 69.6053 20.356 69.3813 19.964C69.1573 19.5533 68.7933 19.348 68.2893 19.348C67.9346 19.348 67.6546 19.46 67.4493 19.684C67.2439 19.908 67.1413 20.1973 67.1413 20.552C67.1413 21.112 67.3093 21.532 67.6453 21.812ZM68.0653 26.852C69.1666 26.852 69.7173 25.8533 69.7173 23.856C68.7839 23.856 68.0839 24.0147 67.6173 24.332C67.1506 24.6307 66.9173 25.06 66.9173 25.62C66.9173 25.9933 67.0199 26.292 67.2253 26.516C67.4306 26.74 67.7106 26.852 68.0653 26.852ZM84.3958 26.404C84.3958 26.964 84.5731 27.244 84.9278 27.244C85.2825 27.244 85.6278 27.104 85.9638 26.824L86.1878 27.104C85.4971 27.8693 84.6851 28.252 83.7518 28.252C83.0798 28.252 82.5945 28.084 82.2958 27.748C82.0158 27.3933 81.8758 26.824 81.8758 26.04V21.756C81.8758 20.6733 81.5305 20.132 80.8398 20.132C80.1678 20.132 79.6171 20.5893 79.1878 21.504C78.7771 22.4187 78.5718 23.6133 78.5718 25.088C78.5718 25.648 78.6185 26.1053 78.7118 26.46C78.8051 26.796 78.9545 27.1227 79.1598 27.44L79.3838 27.72L79.1598 28H75.0998L74.9318 27.524L75.3238 27.44C75.6225 27.3653 75.8185 27.2533 75.9118 27.104C76.0051 26.936 76.0518 26.6187 76.0518 26.152V20.692C76.0518 20.3373 75.9305 20.16 75.6878 20.16H74.7918L74.7078 19.852C75.0811 19.5347 75.5478 19.2733 76.1078 19.068C76.6678 18.8627 77.2278 18.76 77.7878 18.76C78.0305 18.76 78.2171 18.816 78.3478 18.928C78.4971 19.04 78.5718 19.1893 78.5718 19.376V21.784C78.8331 20.9067 79.2998 20.1787 79.9718 19.6C80.6438 19.0027 81.3531 18.704 82.0998 18.704C82.9025 18.704 83.4811 18.9653 83.8358 19.488C84.2091 20.0107 84.3958 20.8413 84.3958 21.98V26.404ZM92.7792 18.704C93.5259 18.704 94.1979 18.9 94.7952 19.292C95.4112 19.6653 95.8872 20.188 96.2232 20.86C96.5779 21.532 96.7552 22.288 96.7552 23.128C96.7552 24.0987 96.5219 24.976 96.0552 25.76C95.6072 26.5253 94.9819 27.132 94.1792 27.58C93.3765 28.028 92.4805 28.252 91.4912 28.252C90.8192 28.252 90.1472 28.1493 89.4752 27.944C88.8032 27.7387 88.2525 27.4587 87.8232 27.104V16.044C87.8232 15.8947 87.7952 15.792 87.7392 15.736C87.6832 15.68 87.5899 15.652 87.4592 15.652H86.5912L86.5072 15.372C86.8619 15.036 87.3192 14.7747 87.8792 14.588C88.4579 14.3827 89.0272 14.28 89.5872 14.28C89.8299 14.28 90.0165 14.336 90.1472 14.448C90.2965 14.5413 90.3712 14.6813 90.3712 14.868V19.572C90.6512 19.292 90.9965 19.0773 91.4072 18.928C91.8365 18.7787 92.2939 18.704 92.7792 18.704ZM91.6312 27.608C93.1805 27.608 93.9552 26.2733 93.9552 23.604C93.9552 22.2787 93.7592 21.2707 93.3672 20.58C92.9939 19.8707 92.4339 19.516 91.6872 19.516C91.2205 19.516 90.7819 19.656 90.3712 19.936V27.328C90.7819 27.5147 91.2019 27.608 91.6312 27.608ZM101.278 21.812C100.886 22.036 100.419 22.148 99.8781 22.148C99.4861 22.148 99.1781 22.036 98.9541 21.812C98.7301 21.5693 98.6181 21.2333 98.6181 20.804C98.6181 20.1693 98.9261 19.6653 99.5421 19.292C100.177 18.9 100.998 18.704 102.006 18.704C103.201 18.704 104.134 18.9653 104.806 19.488C105.497 20.0107 105.842 20.72 105.842 21.616V26.46C105.842 26.9827 106.029 27.244 106.402 27.244C106.757 27.244 107.102 27.104 107.438 26.824L107.662 27.104C106.971 27.8693 106.15 28.252 105.198 28.252C104.638 28.252 104.209 28.112 103.91 27.832C103.63 27.552 103.462 27.1133 103.406 26.516H103.294C102.995 27.0573 102.594 27.4867 102.09 27.804C101.605 28.1027 101.045 28.252 100.41 28.252C99.7007 28.252 99.1314 28.0373 98.7021 27.608C98.2727 27.16 98.0581 26.5813 98.0581 25.872C98.0581 25.0693 98.4407 24.4347 99.2061 23.968C99.9714 23.5013 101.007 23.268 102.314 23.268C102.557 23.268 102.902 23.2867 103.35 23.324V21.924C103.35 21.0093 103.238 20.356 103.014 19.964C102.79 19.5533 102.426 19.348 101.922 19.348C101.567 19.348 101.287 19.46 101.082 19.684C100.877 19.908 100.774 20.1973 100.774 20.552C100.774 21.112 100.942 21.532 101.278 21.812ZM101.698 26.852C102.799 26.852 103.35 25.8533 103.35 23.856C102.417 23.856 101.717 24.0147 101.25 24.332C100.783 24.6307 100.55 25.06 100.55 25.62C100.55 25.9933 100.653 26.292 100.858 26.516C101.063 26.74 101.343 26.852 101.698 26.852ZM118.029 26.404C118.029 26.964 118.206 27.244 118.561 27.244C118.915 27.244 119.261 27.104 119.597 26.824L119.821 27.104C119.13 27.8693 118.318 28.252 117.385 28.252C116.713 28.252 116.227 28.084 115.929 27.748C115.649 27.3933 115.509 26.824 115.509 26.04V21.756C115.509 20.6733 115.163 20.132 114.473 20.132C113.801 20.132 113.25 20.5893 112.821 21.504C112.41 22.4187 112.205 23.6133 112.205 25.088C112.205 25.648 112.251 26.1053 112.345 26.46C112.438 26.796 112.587 27.1227 112.793 27.44L113.017 27.72L112.793 28H108.733L108.565 27.524L108.957 27.44C109.255 27.3653 109.451 27.2533 109.545 27.104C109.638 26.936 109.685 26.6187 109.685 26.152V20.692C109.685 20.3373 109.563 20.16 109.321 20.16H108.425L108.341 19.852C108.714 19.5347 109.181 19.2733 109.741 19.068C110.301 18.8627 110.861 18.76 111.421 18.76C111.663 18.76 111.85 18.816 111.981 18.928C112.13 19.04 112.205 19.1893 112.205 19.376V21.784C112.466 20.9067 112.933 20.1787 113.605 19.6C114.277 19.0027 114.986 18.704 115.733 18.704C116.535 18.704 117.114 18.9653 117.469 19.488C117.842 20.0107 118.029 20.8413 118.029 21.98V26.404Z" fill="#6F7351"/>
</svg>
