<svg width="96" height="110" viewBox="0 0 96 110" fill="none" xmlns="http://www.w3.org/2000/svg">
<path d="M96 75.6412C93.7076 78.2652 91.3632 80.1477 88.9667 81.2886C86.5701 82.4295 83.9131 83 80.9956 83C76.9319 83 73.806 81.9161 71.6179 79.7484C69.4298 77.4666 67.3458 73.4735 65.3661 67.769L59.4269 50.9979C58.1765 47.9174 56.9782 45.6927 55.8321 44.3236C54.6859 42.8404 52.8104 42.0989 50.2054 42.0989V60.5814C50.2054 65.8295 50.5701 69.5944 51.2995 71.8762C52.1331 74.0439 54.0086 76.5539 56.9261 79.4061L55.8321 81.4598H40.0635H27.6989L26.6049 78.3793C29.2098 77.5807 38.9173 77.3906 40.0635 76.7061C41.2097 75.9075 39.6467 73.2073 40.0635 71.9523C40.4803 70.6974 40.0635 69.8227 40.0635 67.1986V24.415C40.0635 18.9387 40.8971 12.3216 40.0635 10.1539C39.3341 7.87207 42.981 8.13827 40.0635 5.40012L58.0202 4.27818C54.6859 6.21771 52.5499 8.04314 51.6121 9.75448C50.6743 11.4658 50.2054 14.3751 50.2054 18.4823V39.703H50.6743L69.2735 16.5999C70.2112 15.3449 70.8364 14.261 71.149 13.3483C71.5658 12.3215 71.8263 11.1806 71.9305 9.92562C71.9305 9.12699 71.5137 7.58678 70.6801 5.30499L69.7424 3.42251L71.7742 1.54004H90.217L91.1548 4.62045L87.56 5.81839C84.6425 7.18747 81.8813 9.46926 79.2764 12.6638L57.395 40.0453C62.8133 40.5016 67.0853 41.7566 70.2112 43.8102C73.3371 45.7497 75.6295 48.659 77.0882 52.5381L84.2778 72.3896C84.7988 73.8728 85.424 74.9566 86.1534 75.6412C86.8827 76.2116 87.8205 76.4969 88.9667 76.4969C90.6338 76.4969 92.5615 75.5841 94.7496 73.7587L96 75.6412Z" fill="#FAFAFA"/>
<path d="M16.8799 39.532C11.7742 40.787 7.71054 43.2399 4.68883 46.8908C1.56292 50.5417 -2.85358e-05 54.82 -2.85358e-05 59.7259C-2.85358e-05 66.3431 2.55279 71.6482 7.65844 75.6414C12.7641 79.5204 19.6411 81.4599 28.2894 81.4599H60.9551L62.0492 78.3795C59.4443 77.5809 57.5687 76.8393 56.4226 76.1548C55.2764 75.3561 54.4949 74.3293 54.0781 73.0743C53.6613 71.8194 53.453 69.8798 53.453 67.2558V20.8784C53.453 16.8852 53.7655 13.976 54.3907 12.1505C54.9117 10.3251 56.2142 8.72785 58.2981 7.35877L60.1737 6.16083L59.5485 3.93609C56.2142 2.79519 51.9421 1.88248 46.7323 1.19794C41.4182 0.399315 36.6252 0 32.3531 0C23.1838 0 16.0463 1.88248 10.9406 5.64743C5.7308 9.41238 3.12587 14.6605 3.12587 21.3918C3.12587 25.6131 4.37624 29.321 6.87697 32.5155C9.27349 35.5959 12.6078 37.9348 16.8799 39.532ZM28.4457 77.695C24.6946 77.695 21.6208 76.0407 19.2243 72.7321C16.7236 69.4235 15.4732 65.2022 15.4732 60.0681C15.4732 54.82 17.0883 50.5417 20.3184 47.2331C23.5485 43.9245 28.1331 41.6997 34.0723 40.5588V38.5052C29.2793 38.5052 25.5282 36.965 22.8191 33.8846C20.0058 30.8042 18.5991 26.6399 18.5991 21.3918C18.5991 16.1437 19.7453 11.9794 22.0376 8.89898C24.3299 5.70448 27.4037 4.10722 31.259 4.10722C33.5514 4.10722 35.3227 4.96289 36.5731 6.67424C37.8234 8.27149 38.4486 10.5533 38.4486 13.5196V62.464C38.4486 67.1417 37.5629 70.8496 35.7916 73.5877C33.916 76.3259 31.4674 77.695 28.4457 77.695Z" fill="#6F7351"/>
<path d="M22.2409 107.844C21.7423 108.365 21.2323 108.739 20.7109 108.966C20.1896 109.193 19.6116 109.306 18.9769 109.306C18.0929 109.306 17.4129 109.091 16.9369 108.66C16.4609 108.207 16.0076 107.413 15.5769 106.28L14.2849 102.948C14.0129 102.336 13.7523 101.894 13.5029 101.622C13.2536 101.327 12.8456 101.18 12.2789 101.18V104.852C12.2789 105.895 12.3583 106.643 12.5169 107.096C12.6983 107.527 13.1063 108.025 13.7409 108.592L13.5029 109H7.38292L7.14492 108.388C7.71159 108.229 8.11959 108.082 8.36892 107.946C8.61826 107.787 8.78826 107.583 8.87892 107.334C8.96959 107.085 9.01492 106.699 9.01492 106.178V97.338C9.01492 96.25 8.92426 95.4907 8.74292 95.06C8.58426 94.6067 8.18759 94.108 7.55292 93.564L7.82492 93.122H13.7409L13.9789 93.666C13.2536 94.0513 12.7889 94.414 12.5849 94.754C12.3809 95.094 12.2789 95.672 12.2789 96.488V100.704H12.3809L16.4269 96.114C16.6309 95.8647 16.7669 95.6493 16.8349 95.468C16.9256 95.264 16.9823 95.0373 17.0049 94.788C17.0049 94.6293 16.9143 94.3233 16.7329 93.87L16.5289 93.496L16.9709 93.122H20.9829L21.1869 93.734L20.4049 93.972C19.7703 94.244 19.1696 94.6973 18.6029 95.332L13.8429 100.772C15.0216 100.863 15.9509 101.112 16.6309 101.52C17.3109 101.905 17.8096 102.483 18.1269 103.254L19.6909 107.198C19.8043 107.493 19.9403 107.708 20.0989 107.844C20.2576 107.957 20.4616 108.014 20.7109 108.014C21.0736 108.014 21.4929 107.833 21.9689 107.47L22.2409 107.844ZM26.4264 101.486C25.9504 101.758 25.3837 101.894 24.7264 101.894C24.2504 101.894 23.8764 101.758 23.6044 101.486C23.3324 101.191 23.1964 100.783 23.1964 100.262C23.1964 99.4913 23.5704 98.8793 24.3184 98.426C25.089 97.95 26.0864 97.712 27.3104 97.712C28.761 97.712 29.8944 98.0293 30.7104 98.664C31.549 99.2987 31.9684 100.16 31.9684 101.248V107.13C31.9684 107.765 32.195 108.082 32.6484 108.082C33.079 108.082 33.4984 107.912 33.9064 107.572L34.1784 107.912C33.3397 108.841 32.3424 109.306 31.1864 109.306C30.5064 109.306 29.985 109.136 29.6224 108.796C29.2824 108.456 29.0784 107.923 29.0104 107.198H28.8744C28.5117 107.855 28.0244 108.377 27.4124 108.762C26.823 109.125 26.143 109.306 25.3724 109.306C24.511 109.306 23.8197 109.045 23.2984 108.524C22.777 107.98 22.5164 107.277 22.5164 106.416C22.5164 105.441 22.981 104.671 23.9104 104.104C24.8397 103.537 26.0977 103.254 27.6844 103.254C27.979 103.254 28.3984 103.277 28.9424 103.322V101.622C28.9424 100.511 28.8064 99.718 28.5344 99.242C28.2624 98.7433 27.8204 98.494 27.2084 98.494C26.7777 98.494 26.4377 98.63 26.1884 98.902C25.939 99.174 25.8144 99.5253 25.8144 99.956C25.8144 100.636 26.0184 101.146 26.4264 101.486ZM26.9364 107.606C28.2737 107.606 28.9424 106.393 28.9424 103.968C27.809 103.968 26.959 104.161 26.3924 104.546C25.8257 104.909 25.5424 105.43 25.5424 106.11C25.5424 106.563 25.667 106.926 25.9164 107.198C26.1657 107.47 26.5057 107.606 26.9364 107.606ZM46.7663 107.062C46.7663 107.742 46.9817 108.082 47.4123 108.082C47.843 108.082 48.2623 107.912 48.6703 107.572L48.9423 107.912C48.1037 108.841 47.1177 109.306 45.9843 109.306C45.1683 109.306 44.579 109.102 44.2163 108.694C43.8763 108.263 43.7063 107.572 43.7063 106.62V101.418C43.7063 100.103 43.287 99.446 42.4483 99.446C41.6323 99.446 40.9637 100.001 40.4423 101.112C39.9437 102.223 39.6943 103.673 39.6943 105.464C39.6943 106.144 39.751 106.699 39.8643 107.13C39.9777 107.538 40.159 107.935 40.4083 108.32L40.6803 108.66L40.4083 109H35.4783L35.2743 108.422L35.7503 108.32C36.113 108.229 36.351 108.093 36.4643 107.912C36.5777 107.708 36.6343 107.323 36.6343 106.756V100.126C36.6343 99.6953 36.487 99.48 36.1923 99.48H35.1043L35.0023 99.106C35.4557 98.7207 36.0223 98.4033 36.7023 98.154C37.3823 97.9047 38.0623 97.78 38.7423 97.78C39.037 97.78 39.2637 97.848 39.4223 97.984C39.6037 98.12 39.6943 98.3013 39.6943 98.528V101.452C40.0117 100.387 40.5783 99.5027 41.3943 98.8C42.2103 98.0747 43.0717 97.712 43.9783 97.712C44.953 97.712 45.6557 98.0293 46.0863 98.664C46.5397 99.2987 46.7663 100.307 46.7663 101.69V107.062ZM56.9462 97.712C57.8528 97.712 58.6688 97.95 59.3942 98.426C60.1422 98.8793 60.7202 99.514 61.1282 100.33C61.5588 101.146 61.7742 102.064 61.7742 103.084C61.7742 104.263 61.4908 105.328 60.9242 106.28C60.3802 107.209 59.6208 107.946 58.6462 108.49C57.6715 109.034 56.5835 109.306 55.3822 109.306C54.5662 109.306 53.7502 109.181 52.9342 108.932C52.1182 108.683 51.4495 108.343 50.9282 107.912V94.482C50.9282 94.3007 50.8942 94.176 50.8262 94.108C50.7582 94.04 50.6448 94.006 50.4862 94.006H49.4322L49.3302 93.666C49.7608 93.258 50.3162 92.9407 50.9962 92.714C51.6988 92.4647 52.3902 92.34 53.0702 92.34C53.3648 92.34 53.5915 92.408 53.7502 92.544C53.9315 92.6573 54.0222 92.8273 54.0222 93.054V98.766C54.3622 98.426 54.7815 98.1653 55.2802 97.984C55.8015 97.8027 56.3568 97.712 56.9462 97.712ZM55.5522 108.524C57.4335 108.524 58.3742 106.903 58.3742 103.662C58.3742 102.053 58.1362 100.829 57.6602 99.99C57.2068 99.1287 56.5268 98.698 55.6202 98.698C55.0535 98.698 54.5208 98.868 54.0222 99.208V108.184C54.5208 108.411 55.0308 108.524 55.5522 108.524ZM67.2662 101.486C66.7902 101.758 66.2236 101.894 65.5662 101.894C65.0902 101.894 64.7162 101.758 64.4442 101.486C64.1722 101.191 64.0362 100.783 64.0362 100.262C64.0362 99.4913 64.4102 98.8793 65.1582 98.426C65.9289 97.95 66.9262 97.712 68.1502 97.712C69.6009 97.712 70.7342 98.0293 71.5502 98.664C72.3889 99.2987 72.8082 100.16 72.8082 101.248V107.13C72.8082 107.765 73.0349 108.082 73.4882 108.082C73.9189 108.082 74.3382 107.912 74.7462 107.572L75.0182 107.912C74.1796 108.841 73.1822 109.306 72.0262 109.306C71.3462 109.306 70.8249 109.136 70.4622 108.796C70.1222 108.456 69.9182 107.923 69.8502 107.198H69.7142C69.3516 107.855 68.8642 108.377 68.2522 108.762C67.6629 109.125 66.9829 109.306 66.2122 109.306C65.3509 109.306 64.6596 109.045 64.1382 108.524C63.6169 107.98 63.3562 107.277 63.3562 106.416C63.3562 105.441 63.8209 104.671 64.7502 104.104C65.6796 103.537 66.9376 103.254 68.5242 103.254C68.8189 103.254 69.2382 103.277 69.7822 103.322V101.622C69.7822 100.511 69.6462 99.718 69.3742 99.242C69.1022 98.7433 68.6602 98.494 68.0482 98.494C67.6176 98.494 67.2776 98.63 67.0282 98.902C66.7789 99.174 66.6542 99.5253 66.6542 99.956C66.6542 100.636 66.8582 101.146 67.2662 101.486ZM67.7762 107.606C69.1136 107.606 69.7822 106.393 69.7822 103.968C68.6489 103.968 67.7989 104.161 67.2322 104.546C66.6656 104.909 66.3822 105.43 66.3822 106.11C66.3822 106.563 66.5069 106.926 66.7562 107.198C67.0056 107.47 67.3456 107.606 67.7762 107.606ZM87.6062 107.062C87.6062 107.742 87.8215 108.082 88.2522 108.082C88.6829 108.082 89.1022 107.912 89.5102 107.572L89.7822 107.912C88.9435 108.841 87.9575 109.306 86.8242 109.306C86.0082 109.306 85.4189 109.102 85.0562 108.694C84.7162 108.263 84.5462 107.572 84.5462 106.62V101.418C84.5462 100.103 84.1269 99.446 83.2882 99.446C82.4722 99.446 81.8035 100.001 81.2822 101.112C80.7835 102.223 80.5342 103.673 80.5342 105.464C80.5342 106.144 80.5909 106.699 80.7042 107.13C80.8175 107.538 80.9989 107.935 81.2482 108.32L81.5202 108.66L81.2482 109H76.3182L76.1142 108.422L76.5902 108.32C76.9529 108.229 77.1909 108.093 77.3042 107.912C77.4175 107.708 77.4742 107.323 77.4742 106.756V100.126C77.4742 99.6953 77.3269 99.48 77.0322 99.48H75.9442L75.8422 99.106C76.2955 98.7207 76.8622 98.4033 77.5422 98.154C78.2222 97.9047 78.9022 97.78 79.5822 97.78C79.8769 97.78 80.1035 97.848 80.2622 97.984C80.4435 98.12 80.5342 98.3013 80.5342 98.528V101.452C80.8515 100.387 81.4182 99.5027 82.2342 98.8C83.0502 98.0747 83.9115 97.712 84.8182 97.712C85.7929 97.712 86.4955 98.0293 86.9262 98.664C87.3795 99.2987 87.6062 100.307 87.6062 101.69V107.062Z" fill="#FAFAFA"/>
</svg>
